<svg height="201" viewBox="0 0 301 201" width="301" xmlns="http://www.w3.org/2000/svg"><g fill="none"><path d="m.5.5h300v200h-300z" fill="#c1272d"/><path d="m150.49 67.166-7.479 23.094-24.26.021 19.615 14.271-7.479 23.115a5499.298 5499.298 0 0 1 19.615-14.271l19.635 14.26-7.5-23.094 19.615-14.292h-24.24zm0 15.813 2.385 7.281-4.75.01zm-9.073 12.167-1.458 4.531-6.198-4.51zm5.125 0h7.917l2.448 7.542-6.406 4.667-6.406-4.667zm13.042 0h7.646l-6.177 4.531zm-17.073 12.437 3.854 2.781-6.198 4.51zm16 0 2.344 7.292-6.188-4.5v-.01z" fill="#006233"/></g></svg>